<?xml version="1.0" encoding="UTF-8" standalone="no"?>
<!-- Created with Inkscape (http://www.inkscape.org/) -->

<svg
   xmlns:dc="http://purl.org/dc/elements/1.1/"
   xmlns:cc="http://creativecommons.org/ns#"
   xmlns:rdf="http://www.w3.org/1999/02/22-rdf-syntax-ns#"
   xmlns:svg="http://www.w3.org/2000/svg"
   xmlns="http://www.w3.org/2000/svg"
   xmlns:sodipodi="http://sodipodi.sourceforge.net/DTD/sodipodi-0.dtd"
   xmlns:inkscape="http://www.inkscape.org/namespaces/inkscape"
   version="1.1"
   id="svg64"
   width="433"
   height="433"
   viewBox="0 0 433 433"
   sodipodi:docname="logo.svg"
   inkscape:version="0.92.2 (5c3e80d, 2017-08-06)">
  <metadata
     id="metadata70">
    <rdf:RDF>
      <cc:Work
         rdf:about="">
        <dc:format>image/svg+xml</dc:format>
        <dc:type
           rdf:resource="http://purl.org/dc/dcmitype/StillImage" />
        <dc:title></dc:title>
      </cc:Work>
    </rdf:RDF>
  </metadata>
  <defs
     id="defs68" />
  <sodipodi:namedview
     pagecolor="#ffffff"
     bordercolor="#666666"
     borderopacity="1"
     objecttolerance="10"
     gridtolerance="10"
     guidetolerance="10"
     inkscape:pageopacity="0"
     inkscape:pageshadow="2"
     inkscape:window-width="1366"
     inkscape:window-height="713"
     id="namedview66"
     showgrid="false"
     inkscape:zoom="1.2286374"
     inkscape:cx="216.5"
     inkscape:cy="216.5"
     inkscape:window-x="0"
     inkscape:window-y="27"
     inkscape:window-maximized="1"
     inkscape:current-layer="svg64" />
  <path
     style="fill:#000000"
     d="M 1.2556417,217.31391 V 0.8139077 h 216.4999983 216.5 v 216.5000023 216.5 h -216.5 H 1.2556417 Z M 255.80815,389.37852 c 39.56325,-9.74477 67.58306,-24.96501 93.81081,-50.9576 25.34864,-25.12136 40.85965,-53.6226 50.21098,-92.26185 l 3.4257,-14.15485 V 206.4367 180.86917 l -4.0015,-15.68415 c -8.12262,-31.83708 -19.53799,-54.46892 -39.38557,-78.084832 -27.50517,-32.7274 -60.49583,-52.37596 -104.66185,-62.33444 -12.61593,-2.84462 -14.00658,-2.95184 -38.28743,-2.95184 h -25.19601 l -13.48382,3.42068 c -35.15508,8.91841 -57.41959,20.2426 -83.497848,42.46872 -14.96041,12.75054 -30.44936,32.020162 -40.27898,50.110602 -6.56565,12.08342 -13.02873,29.04142 -17.47032,45.83908 l -4.14102,15.66092 -0.37062,25.54319 -0.37063,25.54318 3.4985,14.45682 c 9.91988,40.99183 26.27876,70.07119 54.84451,97.491 13.659948,13.11196 26.193368,21.92881 43.302588,30.46196 15.87902,7.91959 30.61135,13.09533 47.39109,16.64936 6.34141,1.34315 11.73513,2.64738 11.98604,2.89829 0.25091,0.25091 11.31733,0.4562 24.59205,0.4562 24.12406,0 24.14265,-0.002 38.08333,-3.43539 z m -63.89409,-10.07415 c -49.21252,-7.9857 -91.40599,-35.24079 -119.243298,-77.02582 -25.54692,-38.34708 -34.55451,-84.44906 -25.3588,-129.78957 4.31878,-21.29425 13.43952,-42.70814 26.69496,-62.67507 9.39909,-14.158052 29.958368,-35.186872 44.248718,-45.259312 11.05657,-7.79314 31.66229,-18.3402 44.39845,-22.7254 48.82426,-16.81073 105.53202,-9.49578 149.42664,19.27512 45.01021,29.50211 73.3257,75.289142 79.10805,127.920182 4.22575,38.46282 -5.71831,78.96518 -27.69183,112.78941 -25.12765,38.67944 -64.92562,65.90288 -111.24131,76.0936 -12.58823,2.76976 -46.97538,3.56579 -60.34158,1.39686 z m 20.15456,-28.49046 c 0.32536,-18.19252 -0.55383,-25.54943 -3.82416,-32 -0.97594,-1.925 -13.6619,-23.975 -28.19102,-49 -14.52911,-25.025 -34.46864,-59.675 -44.31005,-77 -22.5922,-39.77169 -22.09287,-39.2337 -52.364838,-56.4188 -6.94351,-3.94176 -8.59568,-4.52675 -9.6544,-3.41839 -1.04743,1.09654 10.89805,22.43982 66.377098,118.59751 56.81603,98.475 67.97479,117.21862 69.65439,117 1.90019,-0.24733 2.01562,-1.1337 2.31298,-17.76032 z m 83.71593,-99.5 c 36.17627,-62.7 65.9679,-114.72544 66.20363,-115.61209 0.93483,-3.51619 -2.85049,-2.34487 -15.10792,4.67498 -14.86267,8.51186 -22.1401,13.88528 -27.53054,20.32767 -2.12123,2.53519 -9.82089,15.40944 -17.11037,28.60944 -19.20072,34.76925 -38.37268,67.92668 -53.48444,92.5 -15.81433,25.71579 -16.85532,27.70154 -19.47199,37.14412 -4.8696,17.57252 -4.8018,52.52001 0.0913,47.06424 0.34942,-0.3896 30.23407,-52.00836 66.41033,-114.70836 z m -74.81787,50.56781 c 0.98393,-1.06271 7.83503,-12.42521 15.22468,-25.25 7.38964,-12.8248 25.09717,-43.55843 39.35005,-68.29696 14.25289,-24.73854 26.15148,-46.44044 26.44131,-48.22646 0.45901,-2.82857 0.17982,-3.37929 -2.16516,-4.27085 -3.8737,-1.47278 -159.1773,-1.40218 -163.4127,0.0743 -3.61611,1.26058 -3.99989,3.32762 -1.5228,8.20183 3.60611,7.09578 76.79515,133.43027 79.04944,136.45034 2.78406,3.7298 4.50375,4.05192 7.03518,1.31781 z m -5.40334,-22.2986 c -1.95287,-2.13356 -55.5195,-94.25238 -60.24022,-103.59541 -3.84655,-7.61293 -7.65182,-7.17573 62.30496,-7.15849 37.01061,0.009 62.72841,0.39522 63.61378,0.95501 1.19153,0.75337 1.27147,1.50865 0.40314,3.8091 -0.97861,2.59265 -49.27817,86.83153 -58.19583,101.49889 -2.03144,3.34122 -4.16947,6.22911 -4.75117,6.41753 -0.5817,0.18842 -1.9923,-0.67856 -3.13466,-1.92663 z M 317.45196,138.91545 c 7.21546,-2.40167 18.68372,-8.93302 28.30368,-16.11938 l 6,-4.48216 -132,-0.25713 c -72.6,-0.14142 -132.562498,-0.043 -133.249998,0.21861 -2.98973,1.13788 -0.43544,3.47205 10.98518,10.03852 14.587088,8.38709 18.641638,10.27298 25.416628,11.82206 3.76663,0.86122 29.71277,1.15514 96.5,1.09314 l 91.34819,-0.0848 6.69632,-2.22887 z"
     id="path74"
     inkscape:connector-curvature="0" />
</svg>
